<svg width="32" height="26" viewBox="0 0 32 26" fill="none" xmlns="http://www.w3.org/2000/svg">
<path d="M1.16664 26C1.04384 26.0006 0.921781 25.9816 0.805412 25.9437C0.562054 25.8673 0.351467 25.7156 0.206155 25.512C0.0608442 25.3084 -0.0111121 25.0642 0.00139316 24.8172C0.00139316 24.6482 1.20159 8.29183 18.1676 7.00765V1.12746C18.1673 0.903504 18.2362 0.684571 18.3653 0.498626C18.4944 0.312681 18.678 0.168164 18.8925 0.083531C19.1069 -0.00110147 19.3427 -0.0220069 19.5695 0.0234847C19.7963 0.0689764 20.004 0.1788 20.1659 0.338929L31.6669 11.6938C31.8804 11.9043 32 12.1875 32 12.4823C32 12.7772 31.8804 13.0603 31.6669 13.2708L20.1659 24.6257C20.004 24.7858 19.7963 24.8956 19.5695 24.9411C19.3427 24.9866 19.1069 24.9657 18.8925 24.8811C18.678 24.7965 18.4944 24.6519 18.3653 24.466C18.2362 24.28 18.1673 24.0611 18.1676 23.8372V18.0696C6.84138 18.4864 2.19788 25.3917 2.15127 25.4762C2.04614 25.6367 1.90075 25.7688 1.72859 25.8604C1.55644 25.952 1.36313 26 1.16664 26ZM20.498 3.88732V8.0609C20.4982 8.35295 20.3811 8.63366 20.1713 8.84382C19.9615 9.05397 19.6755 9.17715 19.3736 9.18737C8.39698 9.57601 4.4701 16.6446 3.06016 21.1899C5.97327 18.7568 11.1644 15.7829 19.2629 15.7829H19.3153C19.6244 15.7829 19.9207 15.9016 20.1393 16.1128C20.3578 16.3241 20.4806 16.6106 20.4806 16.9093V21.0829L29.2199 12.4879L20.498 3.88732Z" fill="white"/>
</svg>
