<svg width="15" height="16" viewBox="0 0 15 16" fill="none" xmlns="http://www.w3.org/2000/svg">
<path d="M7.5 8.8C7.21458 8.79715 6.93498 8.86899 6.69885 9.00584C6.46272 9.14269 6.28139 9.33799 6.17926 9.56544C6.07714 9.7929 6.05912 10.0416 6.12764 10.278C6.19616 10.5145 6.34792 10.7274 6.5625 10.888V12C6.5625 12.2122 6.66127 12.4157 6.83709 12.5657C7.0129 12.7157 7.25136 12.8 7.5 12.8C7.74864 12.8 7.9871 12.7157 8.16291 12.5657C8.33873 12.4157 8.4375 12.2122 8.4375 12V10.888C8.65208 10.7274 8.80384 10.5145 8.87236 10.278C8.94088 10.0416 8.92286 9.7929 8.82074 9.56544C8.71861 9.33799 8.53728 9.14269 8.30115 9.00584C8.06502 8.86899 7.78542 8.79715 7.5 8.8ZM12.1875 5.6V4C12.1875 2.93913 11.6936 1.92172 10.8146 1.17157C9.93549 0.421427 8.7432 0 7.5 0C6.2568 0 5.06451 0.421427 4.18544 1.17157C3.30636 1.92172 2.8125 2.93913 2.8125 4V5.6C2.06658 5.6 1.35121 5.85286 0.823762 6.30294C0.296316 6.75303 0 7.36348 0 8V13.6C0 14.2365 0.296316 14.847 0.823762 15.2971C1.35121 15.7471 2.06658 16 2.8125 16H12.1875C12.9334 16 13.6488 15.7471 14.1762 15.2971C14.7037 14.847 15 14.2365 15 13.6V8C15 7.36348 14.7037 6.75303 14.1762 6.30294C13.6488 5.85286 12.9334 5.6 12.1875 5.6ZM4.6875 4C4.6875 3.36348 4.98382 2.75303 5.51126 2.30294C6.03871 1.85286 6.75408 1.6 7.5 1.6C8.24592 1.6 8.96129 1.85286 9.48874 2.30294C10.0162 2.75303 10.3125 3.36348 10.3125 4V5.6H4.6875V4ZM13.125 13.6C13.125 13.8122 13.0262 14.0157 12.8504 14.1657C12.6746 14.3157 12.4361 14.4 12.1875 14.4H2.8125C2.56386 14.4 2.3254 14.3157 2.14959 14.1657C1.97377 14.0157 1.875 13.8122 1.875 13.6V8C1.875 7.78783 1.97377 7.58434 2.14959 7.43431C2.3254 7.28429 2.56386 7.2 2.8125 7.2H12.1875C12.4361 7.2 12.6746 7.28429 12.8504 7.43431C13.0262 7.58434 13.125 7.78783 13.125 8V13.6Z" fill="white"/>
</svg>
