<?xml version="1.0" encoding="utf-8"?>
<!-- Generator: Adobe Illustrator 24.0.1, SVG Export Plug-In . SVG Version: 6.00 Build 0)  -->
<svg version="1.1" id="Capa_1" xmlns="http://www.w3.org/2000/svg" xmlns:xlink="http://www.w3.org/1999/xlink" x="0px" y="0px"
	 viewBox="0 0 883.5 879.2" style="enable-background:new 0 0 883.5 879.2;" xml:space="preserve">
<style type="text/css">
	.st0{fill:#DFE5E8;}
	.st1{fill:#AEB6BA;}
</style>
<g id="Objects">
	<g>
		<circle class="st0" cx="438.9" cy="437.7" r="414.5"/>
		<path class="st1" d="M718.5,741.3v24.6c-76.4,61.8-173.6,98.8-279.5,98.8c-105.9,0-203.1-37-279.5-98.7v-24.6
			c0-133,107.8-240.9,240.9-240.9h77.4C610.6,500.4,718.5,608.3,718.5,741.3z"/>
		<circle class="st1" cx="444.4" cy="310.1" r="149.2"/>
		<path class="st1" d="M438.9,866.4c-57.9,0-114-11.3-166.9-33.7c-51.1-21.6-96.9-52.5-136.3-91.9c-39.4-39.4-70.3-85.2-91.9-136.3
			c-22.4-52.9-33.7-109-33.7-166.9s11.3-114,33.7-166.9c21.6-51.1,52.5-96.9,91.9-136.3c39.4-39.4,85.2-70.3,136.3-91.9
			C324.9,20.4,381.1,9,438.9,9s114,11.3,166.9,33.7c51.1,21.6,96.9,52.5,136.3,91.9c39.4,39.4,70.3,85.2,91.9,136.3
			c22.4,52.9,33.7,109,33.7,166.9s-11.3,114-33.7,166.9c-21.6,51-52.5,96.9-91.9,136.3c-39.4,39.4-85.2,70.3-136.3,91.9
			C552.9,855.1,496.8,866.4,438.9,866.4z M438.9,37.4c-54,0-106.5,10.6-155.8,31.5c-47.7,20.2-90.5,49-127.2,85.8
			c-36.8,36.8-65.6,79.6-85.8,127.2c-20.9,49.3-31.5,101.8-31.5,155.8c0,54,10.6,106.5,31.5,155.8c20.2,47.7,49,90.5,85.8,127.2
			c36.8,36.8,79.6,65.6,127.2,85.8c49.3,20.9,101.8,31.5,155.8,31.5s106.5-10.6,155.8-31.5c47.7-20.2,90.5-49,127.2-85.8
			c36.8-36.8,65.6-79.6,85.8-127.2c20.9-49.3,31.5-101.8,31.5-155.8s-10.6-106.5-31.5-155.8c-20.2-47.7-49-90.5-85.8-127.2
			c-36.8-36.8-79.6-65.6-127.2-85.8C545.4,48,493,37.4,438.9,37.4z"/>
	</g>
</g>
</svg>
